<svg xmlns:xlink="http://www.w3.org/1999/xlink" width="18" height="18" viewBox="0 0 34 34" fill="#6D6D6D" class="social-media__icon" xmlns="http://www.w3.org/2000/svg"><title>Instagram</title><path d="M16.78.51c-4.46 0-5.02.02-6.77.1-1.74.08-2.93.36-3.98.78-1.08.42-2 1-2.9 1.92a8.2 8.2 0 0 0-1.9 2.96C.84 7.33.56 8.55.48 10.33.4 12.1.37 12.68.37 17.2c0 4.54.02 5.1.1 6.89.08 1.77.36 2.99.77 4.05a8.2 8.2 0 0 0 1.89 2.96c.9.93 1.82 1.5 2.9 1.92 1.05.42 2.24.7 3.98.78 1.75.08 2.31.1 6.77.1 4.45 0 5-.02 6.76-.1 1.74-.08 2.94-.36 3.98-.78 1.08-.42 2-1 2.9-1.92a8.2 8.2 0 0 0 1.9-2.96c.4-1.06.68-2.28.76-4.05.08-1.79.1-2.35.1-6.89s-.02-5.1-.1-6.88c-.08-1.78-.36-3-.76-4.06a8.2 8.2 0 0 0-1.9-2.96 8.03 8.03 0 0 0-2.9-1.92C26.48.97 25.28.69 23.54.6 21.79.52 21.23.5 16.78.5zm0 3.01c4.38 0 4.9.02 6.62.1 1.6.07 2.47.34 3.05.57.76.3 1.31.67 1.88 1.25.58.59.93 1.14 1.23 1.92.23.59.5 1.47.57 3.1.08 1.76.1 2.3.1 6.75s-.02 4.99-.1 6.75a9.39 9.39 0 0 1-.57 3.1c-.3.78-.65 1.34-1.23 1.92-.57.58-1.12.95-1.88 1.25-.58.23-1.45.5-3.05.57-1.73.08-2.24.1-6.62.1s-4.9-.02-6.63-.1a8.93 8.93 0 0 1-3.05-.57 5.07 5.07 0 0 1-1.88-1.25 5.18 5.18 0 0 1-1.23-1.92 9.39 9.39 0 0 1-.56-3.1 118 118 0 0 1-.1-6.75c0-4.46.02-4.99.1-6.75.07-1.63.34-2.51.56-3.1.3-.78.65-1.33 1.23-1.92A5.07 5.07 0 0 1 7.1 4.2c.58-.23 1.45-.5 3.05-.57 1.73-.08 2.25-.1 6.63-.1z" fill="#6D6D6D"></path><path d="M16.78 22.78c-3.02 0-5.47-2.5-5.47-5.57s2.45-5.57 5.47-5.57c3.02 0 5.46 2.5 5.46 5.57s-2.44 5.57-5.46 5.57zm0-14.14a8.5 8.5 0 0 0-8.43 8.57 8.5 8.5 0 0 0 8.43 8.58c4.65 0 8.42-3.84 8.42-8.58s-3.77-8.58-8.42-8.58zM27.5 8.3c0 1.1-.88 2-1.97 2-1.09 0-1.97-.9-1.97-2s.88-2 1.97-2c1.09 0 1.97.89 1.97 2" fill="#6D6D6D"></path></svg>