<svg xmlns:xlink="http://www.w3.org/1999/xlink" width="18" height="18" viewBox="0 0 34 34" fill="#6D6D6D" class="social-media__icon" xmlns="http://www.w3.org/2000/svg"><title>Pinterest</title><path d="M17 0a17 17 0 0 0-6.2 32.84c-.14-1.35-.28-3.41.07-4.88.3-1.33 2-8.45 2-8.45s-.52-1.02-.52-2.53c0-2.36 1.37-4.12 3.08-4.12 1.45 0 2.15 1.08 2.15 2.39 0 1.46-.93 3.64-1.4 5.66-.41 1.7.84 3.07 2.5 3.07 3.03 0 5.35-3.18 5.35-7.78 0-4.07-2.92-6.92-7.1-6.92a7.36 7.36 0 0 0-7.68 7.38 6.6 6.6 0 0 0 1.27 3.88c.14.17.16.32.12.49l-.47 1.92c-.08.32-.25.38-.57.23-2.13-.99-3.46-4.1-3.46-6.59 0-5.36 3.9-10.29 11.24-10.29 5.9 0 10.48 4.2 10.48 9.83 0 5.86-3.7 10.57-8.82 10.57-1.72 0-3.34-.9-3.9-1.95l-1.06 4.04a18.92 18.92 0 0 1-2.11 4.46A17 17 0 1 0 17 0z" fill="#6D6D6D"></path></svg>