<svg width="21" height="19" viewBox="0 0 21 19" fill="none" xmlns="http://www.w3.org/2000/svg">
<g clip-path="url(#clip0_58_10)">
<path d="M20.5 3.30003C19.7483 3.62612 18.9534 3.84169 18.14 3.94003C18.9982 3.42735 19.6413 2.62081 19.95 1.67003C19.1436 2.15009 18.2608 2.48832 17.34 2.67003C16.7245 2.0026 15.905 1.55832 15.0098 1.40688C14.1147 1.25543 13.1945 1.40538 12.3938 1.83322C11.593 2.26105 10.9569 2.94256 10.5852 3.77086C10.2136 4.59917 10.1273 5.52742 10.34 6.41003C8.70943 6.32755 7.11444 5.90298 5.65865 5.16389C4.20287 4.4248 2.91885 3.38772 1.89 2.12003C1.52914 2.75019 1.33952 3.46385 1.34 4.19003C1.33872 4.86441 1.50422 5.52864 1.82176 6.12359C2.13929 6.71854 2.59902 7.22574 3.16 7.60003C2.50798 7.58229 1.86989 7.40733 1.3 7.09003V7.14003C1.30489 8.08492 1.63599 8.99912 2.23731 9.72799C2.83864 10.4569 3.67326 10.9557 4.6 11.14C4.24326 11.2486 3.87288 11.3058 3.5 11.31C3.24189 11.307 2.98442 11.2836 2.73 11.24C2.99391 12.0528 3.50462 12.7632 4.19107 13.2722C4.87753 13.7812 5.70558 14.0636 6.56 14.08C5.1172 15.2153 3.33588 15.8349 1.5 15.84C1.16574 15.8411 0.831736 15.8211 0.5 15.78C2.37443 16.9903 4.55881 17.6327 6.79 17.63C8.32969 17.646 9.85714 17.355 11.2831 16.7741C12.7091 16.1932 14.005 15.3339 15.0952 14.2465C16.1854 13.1591 17.048 11.8654 17.6326 10.4409C18.2172 9.01645 18.512 7.48975 18.5 5.95003C18.5 5.78003 18.5 5.60003 18.5 5.42003C19.2847 4.83484 19.9615 4.11745 20.5 3.30003Z" fill="black"/>
</g>
<defs>
<clipPath id="clip0_58_10">
<rect width="20" height="18" fill="white" transform="translate(0.5 0.5)"/>
</clipPath>
</defs>
</svg>
