<svg xmlns:xlink="http://www.w3.org/1999/xlink" width="18" height="18" viewBox="0 0 512 512" fill="#6D6D6D" class="social-media__icon" xmlns="http://www.w3.org/2000/svg"><title>YouTube</title><path d="M490.2 114c-13.8-24.8-29-29.3-59.6-31-30.7-2.1-107.8-3-174.5-3-67 0-144 .9-174.7 3-30.6 1.7-45.7 6.2-59.7 31C7.4 138.5 0 181 0 255.8v.2c0 74.8 7.4 117.6 21.7 142 14 24.7 29 29.2 59.7 31.3C112 430.9 189.2 432 256 432c66.7 0 143.8-1 174.5-2.8 30.7-2.1 45.8-6.6 59.7-31.3 14.4-24.4 21.7-67.2 21.7-141.7v-.2c0-75-7.3-117.4-21.8-142zM192 352V160l160 96-160 96z" fill="#6D6D6D"></path></svg>