<svg width="66" height="68" viewBox="0 0 66 68" fill="none" xmlns="http://www.w3.org/2000/svg">
<path d="M63 23L3 23V13C3 10.2386 5.23857 8 8 8L58 8C60.7614 8 63 10.2386 63 13V23Z" stroke="black" stroke-width="6"/>
<path d="M3 23H63V60C63 62.7614 60.7614 65 58 65H8C5.23858 65 3 62.7614 3 60V23Z" stroke="black" stroke-width="6"/>
<path d="M24.7621 32.2727V57H19.5341V37.2351H19.3892L13.7266 40.7848V36.1484L19.848 32.2727H24.7621ZM42.0503 57.3381C40.3438 57.3381 38.8225 57.0241 37.4864 56.3963C36.1582 55.7685 35.1038 54.9032 34.323 53.8004C33.5422 52.6977 33.1357 51.4339 33.1035 50.0092H38.1746C38.2309 50.9671 38.6334 51.7438 39.382 52.3395C40.1305 52.9351 41.02 53.233 42.0503 53.233C42.8713 53.233 43.5957 53.0518 44.2236 52.6896C44.8595 52.3194 45.3545 51.8082 45.7087 51.1562C46.0709 50.4962 46.252 49.7396 46.252 48.8864C46.252 48.017 46.0669 47.2524 45.6966 46.5923C45.3344 45.9323 44.8313 45.4171 44.1874 45.0469C43.5434 44.6766 42.8069 44.4875 41.9778 44.4794C41.2534 44.4794 40.5491 44.6283 39.8649 44.9261C39.1888 45.224 38.6615 45.6304 38.2832 46.1456L33.6348 45.3125L34.806 32.2727H49.9224V36.5469H39.1163L38.4764 42.7408H38.6213C39.056 42.129 39.712 41.6219 40.5893 41.2195C41.4667 40.817 42.4487 40.6158 43.5354 40.6158C45.0245 40.6158 46.3526 40.9659 47.5197 41.6662C48.6869 42.3665 49.6085 43.3284 50.2847 44.5518C50.9608 45.7673 51.2948 47.1679 51.2868 48.7536C51.2948 50.4197 50.9085 51.9008 50.1277 53.1967C49.355 54.4846 48.2723 55.4988 46.8798 56.2393C45.4954 56.9718 43.8855 57.3381 42.0503 57.3381Z" fill="black"/>
<path d="M48 3V13" stroke="black" stroke-width="6" stroke-linecap="round"/>
<path d="M18 3V13" stroke="black" stroke-width="6" stroke-linecap="round"/>
</svg>
